<svg xmlns="http://www.w3.org/2000/svg" width="70" height="30.03" viewBox="0 0 70 30.03">
  <defs>
    <style>
      .cls-1 {
        fill: #fff;
        fill-rule: evenodd;
      }
    </style>
  </defs>
  <path id="icon" class="cls-1" d="M404.333,9086.63l-29.283,18.98-29.317-18.94a4.348,4.348,0,0,0-2.411-.67c-1.81,0-3.278.93-3.306,2.09,0,0.02,0,.03,0,0.04a1.724,1.724,0,0,0,.717,1.32l31.734,25.74a4.551,4.551,0,0,0,5.183,0l31.623-25.74c1.087-.89.912-2.17-0.4-2.91A4.718,4.718,0,0,0,404.333,9086.63Z" transform="translate(-340 -9085.97)"/>
</svg>
